# xmcd
#
# Track frame offsets: 
#        150
#        10745
#        22805
#        35905
#        47490
#        57150
#        68365
#        81520
#        95303
#        105873
#        119455
#        132105
#        144075
#        156208
#        168270
#        180953
#        195775
#        210560
#        222113
#        238270
#        254190
#        269040
#        284223
#        298798
#        314618
#        330788
#
# Disc length: 4645 seconds
#
# Revision: 2
# Processed by: cddbd v1.5.2PL0 Copyright (c) Steve Scherf et al.
# Submitted via: ExactAudioCopy v0.99pb4
#
DISCID=7012231a
DTITLE=Various Artist - The Stax Story [CD1 - The Hits)
DYEAR=2000
DGENRE=R&B/Soul
TTITLE0=Carla Thomas - Gee Whiz (Look At His Eyes)
TTITLE1=The Mar-Keys -  Last Night
TTITLE2=Booker T. and The MG's - Green Onions
TTITLE3=Rufus Thomas - Walking The Dog
TTITLE4=Otis Redding - Respect
TTITLE5=Sam and Dave - Hold On I'm Coming
TTITLE6=Carla Thomas - B-A-B-Y
TTITLE7=Eddie Floyd  - Knock On Wood
TTITLE8=The Bar-Kays - Soul Finger
TTITLE9=Otis Redding and Carla Thomas - Tramp
TTITLE10=Albert King - Born Under A Bad Sign
TTITLE11=Sam and Dave  - Soul Man
TTITLE12=Otis Redding - (Sittin' On) The Dock Of The Bay
TTITLE13=William Bell and Judy Clay - Private Number
TTITLE14=Johnnie Taylor - Who's Making Love
TTITLE15=Booker T. and The MG's - Time Is Tight
TTITLE16=Rufus Thomas - Do The Funky Chicken
TTITLE17=Jean Knight  - Mr. Big Stuff
TTITLE18=The Dramatics - Whatcha See Is Whatcha Get
TTITLE19=The Staple Singers - Respect Yourself
TTITLE20=Isaac Hayes  - Theme From Shaft
TTITLE21=Frederick Knight  - I've Been Lonely (For So Long)
TTITLE22=The Staple Singers -  I'll Take You There
TTITLE23=Mel and Tim - Starting All Over Again
TTITLE24=Soul Children -  I'll Be The Other Woman
TTITLE25=Shirley Brown - Woman To Woman
EXTD=Label: Fantasy, Inc. - Stax Records\n4SCD-4429-2
EXTT0=
EXTT1=
EXTT2=
EXTT3=
EXTT4=
EXTT5=
EXTT6=
EXTT7=
EXTT8=
EXTT9=
EXTT10=
EXTT11=
EXTT12=
EXTT13=
EXTT14=
EXTT15=
EXTT16=
EXTT17=
EXTT18=
EXTT19=
EXTT20=
EXTT21=
EXTT22=
EXTT23=
EXTT24=
EXTT25=
PLAYORDER=
